<svg xmlns="http://www.w3.org/2000/svg" id="S3.F1.pic1" class="ltx_picture ltx_centering" height="178.67" overflow="visible" version="1.1" viewBox="0 0 589.28 178.67" width="589.28"><g style="--ltx-stroke-color:#000000;--ltx-fill-color:#000000;" fill="#000000" stroke="#000000" transform="translate(0,178.67) matrix(1 0 0 -1 0 0) translate(203.12,0) translate(0,163.59)"><g stroke-width="0.4pt"><g style="--ltx-fill-color:#4A7C9B;" fill="#4A7C9B"><path style="stroke:none" d="M 158.88 14.53 L 2.99 14.53 C 1.47 14.53 0.23 13.29 0.23 11.76 L 0.23 -11.76 C 0.23 -13.29 1.47 -14.53 2.99 -14.53 L 158.88 -14.53 C 160.41 -14.53 161.65 -13.29 161.65 -11.76 L 161.65 11.76 C 161.65 13.29 160.41 14.53 158.88 14.53 Z M 0.23 -14.53"></path></g><g style="--ltx-stroke-color:#FFFFFF;--ltx-fill-color:#FFFFFF;" fill="#FFFFFF" stroke="#FFFFFF" transform="matrix(0.82 0.0 0.0 0.82 32.09 -2.55)"><foreignObject style="--ltx-fg-color:#FFFFFF;--ltx-fo-width:9.4em;--ltx-fo-height:0.68em;--ltx-fo-depth:0.19em;font-size:9.25pt;" color="#FFFFFF" height="11.07" overflow="visible" transform="matrix(1 0 0 -1 0 8.65)" width="120.26"><span xmlns="http://www.w3.org/1999/xhtml" class="ltx_foreignobject_container"><span class="ltx_foreignobject_content"><span id="S3.F1.pic1.1" class="ltx_text ltx_font_sansserif ltx_font_bold" style="font-size:90%;">Layer 0:</span><span id="S3.F1.pic1.2" class="ltx_text ltx_font_sansserif" style="font-size:90%;"> CLAUDE.md</span></span></span></foreignObject></g><g style="--ltx-fill-color:#658FAA;" fill="#658FAA"><path style="stroke:none" d="M 183.09 -22.6 L -21.22 -22.6 C -22.75 -22.6 -23.99 -23.84 -23.99 -25.37 L -23.99 -48.89 C -23.99 -50.41 -22.75 -51.65 -21.22 -51.65 L 183.09 -51.65 C 184.62 -51.65 185.86 -50.41 185.86 -48.89 L 185.86 -25.37 C 185.86 -23.84 184.62 -22.6 183.09 -22.6 Z M -23.99 -51.65"></path></g><g style="--ltx-stroke-color:#FFFFFF;--ltx-fill-color:#FFFFFF;" fill="#FFFFFF" stroke="#FFFFFF" transform="matrix(0.82 0.0 0.0 0.82 27.45 -39.68)"><foreignObject style="--ltx-fg-color:#FFFFFF;--ltx-fo-width:10.25em;--ltx-fo-height:0.68em;--ltx-fo-depth:0.19em;font-size:9.25pt;" color="#FFFFFF" height="11.07" overflow="visible" transform="matrix(1 0 0 -1 0 8.65)" width="131.23"><span xmlns="http://www.w3.org/1999/xhtml" class="ltx_foreignobject_container"><span class="ltx_foreignobject_content"><span id="S3.F1.pic1.3" class="ltx_text ltx_font_sansserif ltx_font_bold" style="font-size:90%;">Layer 1:</span><span id="S3.F1.pic1.4" class="ltx_text ltx_font_sansserif" style="font-size:90%;"> CONTEXT.md</span></span></span></foreignObject></g><g style="--ltx-fill-color:#80A3B9;" fill="#80A3B9"><path style="stroke:none" d="M 207.3 -59.73 L -45.43 -59.73 C -46.96 -59.73 -48.2 -60.96 -48.2 -62.49 L -48.2 -86.01 C -48.2 -87.54 -46.96 -88.78 -45.43 -88.78 L 207.3 -88.78 C 208.83 -88.78 210.07 -87.54 210.07 -86.01 L 210.07 -62.49 C 210.07 -60.96 208.83 -59.73 207.3 -59.73 Z M -48.2 -88.78"></path></g><g style="--ltx-stroke-color:#FFFFFF;--ltx-fill-color:#FFFFFF;" fill="#FFFFFF" stroke="#FFFFFF" transform="matrix(0.82 0.0 0.0 0.82 13.41 -76.81)"><foreignObject style="--ltx-fg-color:#FFFFFF;--ltx-fo-width:12.93em;--ltx-fo-height:0.68em;--ltx-fo-depth:0.19em;font-size:9.25pt;" color="#FFFFFF" height="11.07" overflow="visible" transform="matrix(1 0 0 -1 0 8.65)" width="165.46"><span xmlns="http://www.w3.org/1999/xhtml" class="ltx_foreignobject_container"><span class="ltx_foreignobject_content"><span id="S3.F1.pic1.5" class="ltx_text ltx_font_sansserif ltx_font_bold" style="font-size:90%;">Layer 2:</span><span id="S3.F1.pic1.6" class="ltx_text ltx_font_sansserif" style="font-size:90%;"> Stage CONTEXT.md</span></span></span></foreignObject></g><g style="--ltx-fill-color:#D4883A;" fill="#D4883A"><path style="stroke:none" d="M 231.52 -96.85 L -69.64 -96.85 C -71.17 -96.85 -72.41 -98.09 -72.41 -99.62 L -72.41 -123.14 C -72.41 -124.67 -71.17 -125.91 -69.64 -125.91 L 231.52 -125.91 C 233.05 -125.91 234.28 -124.67 234.28 -123.14 L 234.28 -99.62 C 234.28 -98.09 233.05 -96.85 231.52 -96.85 Z M -72.41 -125.91"></path></g><g style="--ltx-stroke-color:#FFFFFF;--ltx-fill-color:#FFFFFF;" fill="#FFFFFF" stroke="#FFFFFF" transform="matrix(0.82 0.0 0.0 0.82 19.9 -113.93)"><foreignObject style="--ltx-fg-color:#FFFFFF;--ltx-fo-width:11.69em;--ltx-fo-height:0.68em;--ltx-fo-depth:0.19em;font-size:9.25pt;" color="#FFFFFF" height="11.07" overflow="visible" transform="matrix(1 0 0 -1 0 8.65)" width="149.64"><span xmlns="http://www.w3.org/1999/xhtml" class="ltx_foreignobject_container"><span class="ltx_foreignobject_content"><span id="S3.F1.pic1.7" class="ltx_text ltx_font_sansserif ltx_font_bold" style="font-size:90%;">Layer 3:</span><span id="S3.F1.pic1.8" class="ltx_text ltx_font_sansserif" style="font-size:90%;"> Reference material</span></span></span></foreignObject></g><g style="--ltx-fill-color:#DDA061;" fill="#DDA061"><path style="stroke:none" d="M 255.73 -133.98 L -93.86 -133.98 C -95.39 -133.98 -96.62 -135.22 -96.62 -136.75 L -96.62 -160.27 C -96.62 -161.79 -95.39 -163.03 -93.86 -163.03 L 255.73 -163.03 C 257.26 -163.03 258.5 -161.79 258.5 -160.27 L 258.5 -136.75 C 258.5 -135.22 257.26 -133.98 255.73 -133.98 Z M -96.62 -163.03"></path></g><g style="--ltx-stroke-color:#FFFFFF;--ltx-fill-color:#FFFFFF;" fill="#FFFFFF" stroke="#FFFFFF" transform="matrix(0.82 0.0 0.0 0.82 22.88 -151.06)"><foreignObject style="--ltx-fg-color:#FFFFFF;--ltx-fo-width:11.21em;--ltx-fo-height:0.68em;--ltx-fo-depth:0.19em;font-size:9.25pt;" color="#FFFFFF" height="11.07" overflow="visible" transform="matrix(1 0 0 -1 0 8.65)" width="143.43"><span xmlns="http://www.w3.org/1999/xhtml" class="ltx_foreignobject_container"><span class="ltx_foreignobject_content"><span id="S3.F1.pic1.9" class="ltx_text ltx_font_sansserif ltx_font_bold" style="font-size:90%;">Layer 4:</span><span id="S3.F1.pic1.10" class="ltx_text ltx_font_sansserif" style="font-size:90%;"> Working artifacts</span></span></span></foreignObject></g><g style="--ltx-stroke-color:#000000;--ltx-fill-color:#000000;" fill="#000000" stroke="#000000" transform="matrix(0.82 0.0 0.0 0.82 171.88 -3.15)"><foreignObject style="--ltx-fo-width:6.49em;--ltx-fo-height:0.65em;--ltx-fo-depth:0em;font-size:8.5pt;" height="7.69" overflow="visible" transform="matrix(1 0 0 -1 0 7.69)" width="76.37"><span xmlns="http://www.w3.org/1999/xhtml" class="ltx_foreignobject_container"><span class="ltx_foreignobject_content"><span id="S3.F1.pic1.11" class="ltx_text ltx_font_sansserif" style="font-size:80%;--ltx-fg-color:#000000;">“Where am I?”</span></span></span></foreignObject></g><g style="--ltx-stroke-color:#000000;--ltx-fill-color:#000000;" fill="#000000" stroke="#000000" transform="matrix(0.82 0.0 0.0 0.82 196.1 -39.4)"><foreignObject style="--ltx-fo-width:7.57em;--ltx-fo-height:0.65em;--ltx-fo-depth:0.18em;font-size:8.5pt;" height="9.84" overflow="visible" transform="matrix(1 0 0 -1 0 7.69)" width="89.02"><span xmlns="http://www.w3.org/1999/xhtml" class="ltx_foreignobject_container"><span class="ltx_foreignobject_content"><span id="S3.F1.pic1.12" class="ltx_text ltx_font_sansserif" style="font-size:80%;--ltx-fg-color:#000000;">“Where do I go?”</span></span></span></foreignObject></g><g style="--ltx-stroke-color:#000000;--ltx-fill-color:#000000;" fill="#000000" stroke="#000000" transform="matrix(0.82 0.0 0.0 0.82 220.31 -77.4)"><foreignObject style="--ltx-fo-width:7.2em;--ltx-fo-height:0.65em;--ltx-fo-depth:0em;font-size:8.5pt;" height="7.69" overflow="visible" transform="matrix(1 0 0 -1 0 7.69)" width="84.64"><span xmlns="http://www.w3.org/1999/xhtml" class="ltx_foreignobject_container"><span class="ltx_foreignobject_content"><span id="S3.F1.pic1.13" class="ltx_text ltx_font_sansserif" style="font-size:80%;--ltx-fg-color:#000000;">“What do I do?”</span></span></span></foreignObject></g><g style="--ltx-stroke-color:#000000;--ltx-fill-color:#000000;" fill="#000000" stroke="#000000" transform="matrix(0.82 0.0 0.0 0.82 244.52 -113.65)"><foreignObject style="--ltx-fo-width:8.69em;--ltx-fo-height:0.65em;--ltx-fo-depth:0.18em;font-size:8.5pt;" height="9.84" overflow="visible" transform="matrix(1 0 0 -1 0 7.69)" width="102.2"><span xmlns="http://www.w3.org/1999/xhtml" class="ltx_foreignobject_container"><span class="ltx_foreignobject_content"><span id="S3.F1.pic1.14" class="ltx_text ltx_font_sansserif" style="font-size:80%;--ltx-fg-color:#000000;">“What rules apply?”</span></span></span></foreignObject></g><g style="--ltx-stroke-color:#000000;--ltx-fill-color:#000000;" fill="#000000" stroke="#000000" transform="matrix(0.82 0.0 0.0 0.82 268.74 -150.77)"><foreignObject style="--ltx-fo-width:11.84em;--ltx-fo-height:0.65em;--ltx-fo-depth:0.18em;font-size:8.5pt;" height="9.84" overflow="visible" transform="matrix(1 0 0 -1 0 7.69)" width="139.24"><span xmlns="http://www.w3.org/1999/xhtml" class="ltx_foreignobject_container"><span class="ltx_foreignobject_content"><span id="S3.F1.pic1.15" class="ltx_text ltx_font_sansserif" style="font-size:80%;--ltx-fg-color:#000000;">“What am I working with?”</span></span></span></foreignObject></g><g style="--ltx-stroke-color:#666666;--ltx-fill-color:#666666;" fill="#666666" stroke="#666666" transform="matrix(0.82 0.0 0.0 0.82 -44.37 -3.15)"><foreignObject style="--ltx-fo-width:3.68em;--ltx-fo-height:0.65em;--ltx-fo-depth:0em;font-size:8.5pt;" height="7.69" overflow="visible" transform="matrix(1 0 0 -1 0 7.69)" width="43.32"><span xmlns="http://www.w3.org/1999/xhtml" class="ltx_foreignobject_container"><span class="ltx_foreignobject_content"><span id="S3.F1.pic1.16" class="ltx_text ltx_font_sansserif" style="font-size:80%;--ltx-fg-color:#666666;">~800 tok</span></span></span></foreignObject></g><g style="--ltx-stroke-color:#666666;--ltx-fill-color:#666666;" fill="#666666" stroke="#666666" transform="matrix(0.82 0.0 0.0 0.82 -68.59 -40.28)"><foreignObject style="--ltx-fo-width:3.68em;--ltx-fo-height:0.65em;--ltx-fo-depth:0em;font-size:8.5pt;" height="7.69" overflow="visible" transform="matrix(1 0 0 -1 0 7.69)" width="43.32"><span xmlns="http://www.w3.org/1999/xhtml" class="ltx_foreignobject_container"><span class="ltx_foreignobject_content"><span id="S3.F1.pic1.17" class="ltx_text ltx_font_sansserif" style="font-size:80%;--ltx-fg-color:#666666;">~300 tok</span></span></span></foreignObject></g><g style="--ltx-stroke-color:#666666;--ltx-fill-color:#666666;" fill="#666666" stroke="#666666" transform="matrix(0.82 0.0 0.0 0.82 -108.87 -77.4)"><foreignObject style="--ltx-fo-width:5.35em;--ltx-fo-height:0.65em;--ltx-fo-depth:0em;font-size:8.5pt;" height="7.69" overflow="visible" transform="matrix(1 0 0 -1 0 7.69)" width="62.92"><span xmlns="http://www.w3.org/1999/xhtml" class="ltx_foreignobject_container"><span class="ltx_foreignobject_content"><span id="S3.F1.pic1.18" class="ltx_text ltx_font_sansserif" style="font-size:80%;--ltx-fg-color:#666666;">200–500 tok</span></span></span></foreignObject></g><g style="--ltx-stroke-color:#666666;--ltx-fill-color:#666666;" fill="#666666" stroke="#666666" transform="matrix(0.82 0.0 0.0 0.82 -128.15 -114.53)"><foreignObject style="--ltx-fo-width:4.84em;--ltx-fo-height:0.65em;--ltx-fo-depth:0em;font-size:8.5pt;" height="7.69" overflow="visible" transform="matrix(1 0 0 -1 0 7.69)" width="56.91"><span xmlns="http://www.w3.org/1999/xhtml" class="ltx_foreignobject_container"><span class="ltx_foreignobject_content"><span id="S3.F1.pic1.19" class="ltx_text ltx_font_sansserif" style="font-size:80%;--ltx-fg-color:#666666;">500–2k tok</span></span></span></foreignObject></g><g style="--ltx-stroke-color:#666666;--ltx-fill-color:#666666;" fill="#666666" stroke="#666666" transform="matrix(0.82 0.0 0.0 0.82 -128.09 -151.62)"><foreignObject style="--ltx-fo-width:2.35em;--ltx-fo-height:0.64em;--ltx-fo-depth:0em;font-size:8.5pt;" height="7.59" overflow="visible" transform="matrix(1 0 0 -1 0 7.59)" width="27.63"><span xmlns="http://www.w3.org/1999/xhtml" class="ltx_foreignobject_container"><span class="ltx_foreignobject_content"><span id="S3.F1.pic1.20" class="ltx_text ltx_font_sansserif" style="font-size:80%;--ltx-fg-color:#666666;">varies</span></span></span></foreignObject></g></g><g stroke-width="0.8pt"><g style="--ltx-stroke-color:#4A7C9B;--ltx-fill-color:#4A7C9B;--ltx-fg-color:#4A7C9B;" color="#4A7C9B" fill="#4A7C9B" stroke="#4A7C9B"><path style="fill:none" d="M -106.54 14.53 M -106.54 14.53 C -109.03 13.28 -110.69 10.38 -110.69 6.23 L -110.69 -28.82 C -110.69 -32.98 -112.35 -35.88 -114.84 -37.13 C -112.35 -38.37 -110.69 -41.28 -110.69 -45.43 L -110.69 -80.48 C -110.69 -84.63 -109.03 -87.54 -106.54 -88.78"></path></g><g style="--ltx-stroke-color:#4A7C9B;--ltx-fill-color:#4A7C9B;" fill="#4A7C9B" stroke="#4A7C9B" transform="matrix(0.82 0.0 0.0 0.82 -162.21 -42.55)"><g style="--ltx-fg-color:#4A7C9B;" class="ltx_tikzmatrix" color="#4A7C9B" transform="matrix(1 0 0 -1 0 18.76)"><g class="ltx_tikzmatrix_row" transform="matrix(1 0 0 1 0 7.69)"><g class="ltx_tikzmatrix_col ltx_nopad_r" transform="matrix(1 0 0 -1 0 0)"><foreignObject style="--ltx-fo-width:4.16em;--ltx-fo-height:0.65em;--ltx-fo-depth:0em;font-size:8.5pt;" height="7.69" overflow="visible" transform="matrix(1 0 0 -1 0 7.69)" width="48.89"><span xmlns="http://www.w3.org/1999/xhtml" class="ltx_foreignobject_container"><span class="ltx_foreignobject_content"><span id="S3.F1.pic1.21" class="ltx_text ltx_font_sansserif" style="font-size:80%;">Structural</span></span></span></foreignObject></g></g><g class="ltx_tikzmatrix_row" transform="matrix(1 0 0 1 0 15.99)"><g class="ltx_tikzmatrix_col ltx_nopad_r" transform="matrix(1 0 0 -1 4.77 0)"><foreignObject style="--ltx-fo-width:3.75em;--ltx-fo-height:0.71em;--ltx-fo-depth:0.24em;font-size:8.5pt;" height="11.07" overflow="visible" transform="matrix(1 0 0 -1 0 8.3)" width="44.13"><span xmlns="http://www.w3.org/1999/xhtml" class="ltx_foreignobject_container"><span class="ltx_foreignobject_content"><span id="S3.F1.pic1.22" class="ltx_text ltx_font_sansserif" style="font-size:80%;">(routing)</span></span></span></foreignObject></g></g></g></g></g><g stroke-width="0.8pt"><g style="--ltx-stroke-color:#D4883A;--ltx-fill-color:#D4883A;--ltx-fg-color:#D4883A;" color="#D4883A" fill="#D4883A" stroke="#D4883A"><path style="fill:none" d="M -106.54 -95.24 M -106.54 -95.24 C -109.03 -96.48 -110.69 -99.39 -110.69 -103.54 L -110.69 -120.83 C -110.69 -124.98 -112.35 -127.89 -114.84 -129.14 C -112.35 -130.38 -110.69 -133.29 -110.69 -137.44 L -110.69 -154.73 C -110.69 -158.88 -109.03 -161.79 -106.54 -163.03"></path></g><g style="--ltx-stroke-color:#D4883A;--ltx-fill-color:#D4883A;" fill="#D4883A" stroke="#D4883A" transform="matrix(0.82 0.0 0.0 0.82 -199.34 -134.56)"><g style="--ltx-fg-color:#D4883A;" class="ltx_tikzmatrix" color="#D4883A" transform="matrix(1 0 0 -1 0 18.76)"><g class="ltx_tikzmatrix_row" transform="matrix(1 0 0 1 0 7.69)"><g class="ltx_tikzmatrix_col ltx_nopad_r" transform="matrix(1 0 0 -1 54.91 0)"><foreignObject style="--ltx-fo-width:3.34em;--ltx-fo-height:0.65em;--ltx-fo-depth:0em;font-size:8.5pt;" height="7.69" overflow="visible" transform="matrix(1 0 0 -1 0 7.69)" width="39.26"><span xmlns="http://www.w3.org/1999/xhtml" class="ltx_foreignobject_container"><span class="ltx_foreignobject_content"><span id="S3.F1.pic1.23" class="ltx_text ltx_font_sansserif" style="font-size:80%;">Content</span></span></span></foreignObject></g></g><g class="ltx_tikzmatrix_row" transform="matrix(1 0 0 1 0 15.99)"><g class="ltx_tikzmatrix_col ltx_nopad_r" transform="matrix(1 0 0 -1 0 0)"><foreignObject style="--ltx-fo-width:8.03em;--ltx-fo-height:0.71em;--ltx-fo-depth:0.24em;font-size:8.5pt;" height="11.07" overflow="visible" transform="matrix(1 0 0 -1 0 8.3)" width="94.5"><span xmlns="http://www.w3.org/1999/xhtml" class="ltx_foreignobject_container"><span class="ltx_foreignobject_content"><span id="S3.F1.pic1.24" class="ltx_text ltx_font_sansserif" style="font-size:80%;">(factory / product)</span></span></span></foreignObject></g></g></g></g></g></g></svg>